#N canvas 217 89 846 616 10;
#X obj 41 95 float;
#X obj 107 95 + 1;
#X floatatom 41 123 5 0 0 0 - - -, f 5;
#X obj 41 175 hradio 15 1 0 16 empty empty empty 0 -8 0 10 -262144
-1 -1 12;
#X obj 117 365 float;
#X obj 79 365 float;
#X obj 155 365 float;
#X obj 41 365 float;
#X obj 68 227 vsl 15 128 0 127 0 0 empty empty empty 0 -9 0 10 -262144
-1 -1 4200 1;
#X obj 106 227 vsl 15 128 0 127 0 0 empty empty empty 0 -9 0 10 -262144
-1 -1 5400 1;
#X obj 144 227 vsl 15 128 0 127 0 0 empty empty empty 0 -9 0 10 -262144
-1 -1 4200 1;
#X obj 182 227 vsl 15 128 0 127 0 0 empty empty empty 0 -9 0 10 -262144
-1 -1 6600 1;
#X obj 42 404 mtof;
#X obj 42 554 dac~;
#X obj 42 465 phasor~;
#X obj 121 432 line~;
#X floatatom 160 406 5 0 0 0 - - -, f 5;
#X msg 217 451 \$1 100;
#X obj 217 372 r sound;
#X msg 217 399 \$1 1;
#X obj 217 426 tgl 15 0 empty empty empty 17 7 0 10 -262144 -1 -1 1
1;
#X obj 255 399 loadbang;
#X obj 217 479 line~;
#X obj 42 496 *~;
#X msg 121 404 0;
#X msg 650 157 261.63 \, 65.406 100;
#X obj 650 183 line~;
#X obj 650 204 osc~;
#X obj 650 229 *~;
#X obj 695 112 bng 15 250 50 0 empty empty empty 17 7 0 10 -262144
-1 -1;
#X msg 692 183 1 \, 0 100;
#X obj 692 204 line~;
#X obj 650 271 *~ 0.3;
#X obj 650 301 dac~;
#X obj 41 16 loadbang;
#X obj 145 102 loadbang;
#X obj 694 246 *~;
#X msg 163 43 400;
#X msg 135 43 500;
#X msg 107 43 600;
#X obj 42 433 line~;
#X obj 125 472 osc~;
#X msg 191 43 300;
#X msg 124 141 54;
#N canvas 602 158 597 526 hihat 0;
#X obj 61 75 bng 15 250 50 0 empty empty empty 17 7 0 10 -262144 -1
-1;
#X obj 124 236 noise~;
#X obj 211 355 *~;
#X obj 199 438 dac~;
#X obj 179 164 f;
#X obj 198 137 nbx 4 14 5 1000 1 0 empty empty attack 0 -8 0 10 -262144
-1 -1 5 256;
#X text 253 134 ms;
#X msg 179 100 bang;
#X obj 226 265 f;
#X obj 292 249 nbx 4 14 10 10000 1 1 empty empty decay 0 -8 0 10 -262144
-1 -1 248.045 256;
#X text 339 248 ms;
#X msg 226 288 0 \$1;
#X msg 179 243 1 \$1;
#X obj 226 212 delay;
#X obj 179 187 t f f;
#X text 263 190 (sending a float to the left;
#X text 274 206 inlet of [delay] forces it to;
#X text 271 220 output a bang after x ms);
#X obj 226 319 line~;
#X obj 356 265 loadbang;
#X obj 277 82 loadbang;
#X msg 304 128 10;
#X obj 35 220 osc~ 400;
#X obj 206 395 *~;
#X obj 60 49 inlet;
#X obj 373 413 outlet;
#X obj 281 339 inlet;
#X msg 281 366 \$1 100;
#X obj 281 394 line~;
#X obj 76 182 mtof;
#X msg 76 160 78;
#X msg 371 131 8;
#X msg 270 111 10;
#X msg 357 289 50;
#X obj 124 262 *~ 0.1;
#X obj 134 29 bng 15 250 50 0 empty empty empty 17 7 0 10 -262144 -1
-1;
#X obj 149 58 delay 5;
#X connect 1 0 34 0;
#X connect 2 0 23 0;
#X connect 4 0 14 0;
#X connect 5 0 4 1;
#X connect 7 0 4 0;
#X connect 8 0 11 0;
#X connect 9 0 8 1;
#X connect 11 0 18 0;
#X connect 12 0 18 0;
#X connect 13 0 8 0;
#X connect 14 0 12 0;
#X connect 14 1 13 0;
#X connect 18 0 2 1;
#X connect 19 0 33 0;
#X connect 20 0 32 0;
#X connect 21 0 4 1;
#X connect 23 0 3 0;
#X connect 23 0 3 1;
#X connect 24 0 0 0;
#X connect 24 0 35 0;
#X connect 26 0 27 0;
#X connect 27 0 28 0;
#X connect 28 0 23 1;
#X connect 29 0 22 0;
#X connect 30 0 29 0;
#X connect 31 0 4 1;
#X connect 32 0 4 1;
#X connect 33 0 8 1;
#X connect 34 0 2 0;
#X connect 35 0 36 0;
#X connect 36 0 7 0;
#X restore 462 547 pd hihat;
#X obj 506 527 tgl 15 0 empty empty empty 17 7 0 10 -262144 -1 -1 1
1;
#X obj 581 526 loadbang;
#X obj 41 43 delay 100;
#X floatatom 6 175 5 0 0 0 - - -, f 5;
#X obj 308 146 hradio 15 1 0 16 empty empty empty 0 -8 0 10 -262144
-1 -1 12;
#X obj 308 123 mod 16;
#X obj 308 166 select 0 1 2 3 4 5 6 7 8 9 10 11 12 13 14 15;
#X floatatom 273 147 5 0 0 0 - - -, f 5;
#X msg 340 240 1;
#X msg 340 261 0;
#X obj 297 282 spigot;
#X obj 297 240 r hhs1;
#X msg 297 261 \$1 1;
#X obj 530 526 r sound;
#X msg 530 547 \$1 1;
#X obj 372 282 spigot;
#X msg 415 240 1;
#X msg 414 261 0;
#X obj 372 240 r hhs5;
#X msg 372 261 \$1 1;
#X obj 455 282 spigot;
#X msg 498 240 1;
#X msg 497 261 0;
#X msg 455 261 \$1 1;
#X obj 455 240 r hhs9;
#X obj 530 282 spigot;
#X msg 573 240 1;
#X msg 572 261 0;
#X msg 530 261 \$1 1;
#X obj 530 240 r hhs13;
#X obj 419 547 bng 15 250 50 0 empty empty empty 17 7 0 10 -262144
-1 -1;
#N canvas 289 163 691 491 snare 0;
#X msg 56 113 261.63 \, 65.406 100;
#X obj 56 139 line~;
#X obj 56 160 osc~;
#X obj 71 206 *~;
#X msg 109 140 1 \, 0 100;
#X obj 109 173 line~;
#X obj 103 328 dac~;
#X obj 43 47 inlet;
#X obj 91 79 bng 15 250 50 0 empty empty empty 17 7 0 10 -262144 -1
-1;
#X msg 136 220 \$1 100;
#X obj 137 259 line~;
#X obj 93 296 *~ 0.6;
#X obj 244 60 bng 15 250 50 0 empty empty empty 17 7 0 10 -262144 -1
-1;
#X obj 307 221 noise~;
#X obj 394 340 *~;
#X obj 382 423 dac~;
#X obj 362 149 f;
#X obj 381 122 nbx 4 14 5 1000 1 0 empty empty attack 0 -8 0 10 -262144
-1 -1 5 256;
#X text 436 119 ms;
#X msg 362 85 bang;
#X obj 409 250 f;
#X obj 475 234 nbx 4 14 10 10000 1 1 empty empty decay 0 -8 0 10 -262144
-1 -1 60.9756 256;
#X text 522 233 ms;
#X msg 409 273 0 \$1;
#X msg 362 228 1 \$1;
#X obj 409 197 delay;
#X obj 362 172 t f f;
#X obj 409 304 line~;
#X obj 539 250 loadbang;
#X obj 460 67 loadbang;
#X msg 487 113 10;
#X obj 218 205 osc~ 400;
#X obj 389 380 *~;
#X obj 243 34 inlet;
#X obj 464 324 inlet;
#X msg 464 351 \$1 100;
#X obj 464 379 line~;
#X obj 259 167 mtof;
#X msg 259 145 78;
#X msg 554 116 8;
#X msg 453 96 5;
#X obj 307 247 *~ 0.1;
#X msg 540 274 60;
#X connect 0 0 1 0;
#X connect 1 0 2 0;
#X connect 2 0 3 0;
#X connect 3 0 11 0;
#X connect 4 0 5 0;
#X connect 5 0 3 1;
#X connect 7 0 8 0;
#X connect 8 0 0 0;
#X connect 8 0 4 0;
#X connect 9 0 10 0;
#X connect 11 0 6 0;
#X connect 11 0 6 1;
#X connect 12 0 19 0;
#X connect 13 0 41 0;
#X connect 14 0 32 0;
#X connect 16 0 26 0;
#X connect 17 0 16 1;
#X connect 19 0 16 0;
#X connect 20 0 23 0;
#X connect 21 0 20 1;
#X connect 23 0 27 0;
#X connect 24 0 27 0;
#X connect 25 0 20 0;
#X connect 26 0 24 0;
#X connect 26 1 25 0;
#X connect 27 0 14 1;
#X connect 28 0 42 0;
#X connect 29 0 40 0;
#X connect 30 0 16 1;
#X connect 32 0 15 0;
#X connect 32 0 15 1;
#X connect 33 0 12 0;
#X connect 34 0 35 0;
#X connect 35 0 36 0;
#X connect 36 0 32 1;
#X connect 37 0 31 0;
#X connect 38 0 37 0;
#X connect 39 0 16 1;
#X connect 40 0 16 1;
#X connect 41 0 14 0;
#X connect 42 0 20 1;
#X restore 678 346 pd snare;
#X obj 408 101 bng 15 250 50 0 empty empty empty 17 7 0 10 -262144
-1 -1;
#X obj 645 43 tgl 15 0 empty empty empty 17 7 0 10 -262144 -1 -1 1
1;
#X obj 720 42 loadbang;
#X obj 669 42 r sound;
#X msg 669 63 \$1 1;
#X obj 42 526 *~ 0.02;
#N canvas 124 162 557 503 ohh 0;
#X obj 146 56 bng 15 250 50 0 empty empty empty 17 7 0 10 -262144 -1
-1;
#X obj 209 217 noise~;
#X obj 296 336 *~;
#X obj 284 419 dac~;
#X obj 264 145 f;
#X obj 283 118 nbx 4 14 5 1000 1 0 empty empty attack 0 -8 0 10 -262144
-1 -1 5 256;
#X text 338 115 ms;
#X msg 264 81 bang;
#X obj 311 246 f;
#X obj 377 230 nbx 4 14 10 10000 1 1 empty empty decay 0 -8 0 10 -262144
-1 -1 486.967 256;
#X text 424 229 ms;
#X msg 311 269 0 \$1;
#X msg 264 224 1 \$1;
#X obj 311 193 delay;
#X obj 264 168 t f f;
#X text 348 171 (sending a float to the left;
#X text 359 187 inlet of [delay] forces it to;
#X text 356 201 output a bang after x ms);
#X obj 311 300 line~;
#X obj 441 246 loadbang;
#X obj 362 63 loadbang;
#X msg 389 109 10;
#X obj 291 376 *~;
#X obj 145 30 inlet;
#X obj 458 394 outlet;
#X obj 366 320 inlet;
#X msg 366 347 \$1 100;
#X obj 366 375 line~;
#X obj 85 144 mtof;
#X msg 85 122 78;
#X msg 456 112 8;
#X obj 45 182 osc~ 400;
#X msg 127 148 400;
#X obj 141 210 line~;
#X obj 102 255 *~;
#X obj 12 127 osc~;
#X obj 18 105 line~;
#X obj 209 243 *~ 0;
#X msg 141 177 1 \, 0 800;
#X msg 74 84 256 \, 64 100;
#X msg 355 92 15;
#X msg 442 270 600;
#X obj 112 300 *~ 0.8;
#X obj 250 37 delay 10;
#X connect 0 0 43 0;
#X connect 1 0 37 0;
#X connect 2 0 22 0;
#X connect 4 0 14 0;
#X connect 7 0 4 0;
#X connect 8 0 11 0;
#X connect 11 0 18 0;
#X connect 11 0 38 0;
#X connect 12 0 18 0;
#X connect 12 0 38 0;
#X connect 12 0 39 0;
#X connect 13 0 8 0;
#X connect 14 0 12 0;
#X connect 14 1 13 0;
#X connect 18 0 2 1;
#X connect 18 0 34 1;
#X connect 19 0 41 0;
#X connect 20 0 40 0;
#X connect 21 0 4 1;
#X connect 22 0 3 0;
#X connect 22 0 3 1;
#X connect 23 0 0 0;
#X connect 25 0 26 0;
#X connect 26 0 27 0;
#X connect 27 0 22 1;
#X connect 28 0 31 0;
#X connect 29 0 28 0;
#X connect 30 0 4 1;
#X connect 32 0 31 0;
#X connect 34 0 42 0;
#X connect 35 0 34 0;
#X connect 36 0 35 0;
#X connect 38 0 33 0;
#X connect 39 0 36 0;
#X connect 40 0 4 1;
#X connect 41 0 8 1;
#X connect 42 0 2 0;
#X connect 43 0 7 0;
#X restore 457 63 pd ohh;
#X obj 505 43 tgl 15 0 empty empty empty 17 7 0 10 -262144 -1 -1 1
1;
#X obj 580 42 loadbang;
#X obj 529 42 r sound;
#X msg 529 63 \$1 1;
#X obj 41 148 mod 16;
#X msg 247 43 120;
#X msg 96 141 42;
#X msg 181 141 66;
#X msg 152 141 42;
#X obj 41 200 select 0 4 8 12;
#X msg 219 43 240;
#X obj 41 69 metro 240;
#N canvas 504 129 654 563 phasor 0;
#X obj 37 512 dac~;
#X obj 75 35 r freq;
#X obj 36 161 phasor~;
#X msg 36 59 220;
#X obj 36 81 line~;
#X obj 36 234 *~;
#X msg 182 118 \$1 100;
#X obj 183 217 line~;
#X obj 182 44 r sound;
#X msg 182 71 \$1 1;
#X floatatom 205 97 5 0 0 0 - - -, f 5;
#X obj 182 96 tgl 15 0 empty empty empty 17 7 0 10 -262144 -1 -1 1
1;
#X obj 220 71 loadbang;
#X obj 89 311 delwrite~ delayLeft 4000;
#X obj 89 290 delwrite~ delayRight 4000;
#X obj 153 393 sig~;
#X obj 118 393 sig~;
#X obj 63 424 vd~ delayLeft;
#X obj 153 424 vd~ delayRight;
#X msg 75 59 \$1 1000;
#X obj 116 343 loadbang;
#X obj 340 393 sig~;
#X obj 305 393 sig~;
#X obj 250 424 vd~ delayLeft;
#X obj 340 424 vd~ delayRight;
#X obj 303 343 loadbang;
#X msg 340 370 1600;
#X msg 118 370 800;
#X msg 305 370 1600;
#X msg 153 370 800;
#X obj 524 394 sig~;
#X obj 489 394 sig~;
#X obj 434 425 vd~ delayLeft;
#X obj 524 425 vd~ delayRight;
#X obj 487 344 loadbang;
#X msg 489 371 2400;
#X msg 524 371 2400;
#X obj 36 35 inlet;
#X msg 287 123 \$1 100;
#X msg 287 71 \$1 1;
#X floatatom 310 99 5 0 0 0 - - -, f 5;
#X obj 287 98 tgl 15 0 empty empty empty 17 7 0 10 -262144 -1 -1 1
1;
#X obj 325 71 loadbang;
#X obj 287 45 r squeaker;
#X obj 49 107 osc~ 0.6;
#X obj 49 130 *~ 0.125;
#X obj 93 181 *~ 0.125;
#X obj 95 160 osc~ 0.3;
#X obj 54 199 *~;
#X obj 153 449 *~ 0.45;
#X obj 62 449 *~ 0.225;
#X obj 249 449 *~ 0.155;
#X obj 340 449 *~ 0.07525;
#X obj 433 450 *~ 0.0755;
#X obj 524 450 *~ 0.0372525;
#X obj 37 265 *~ 0.1;
#X connect 1 0 19 0;
#X connect 2 0 5 0;
#X connect 3 0 4 0;
#X connect 4 0 2 0;
#X connect 5 0 55 0;
#X connect 6 0 7 0;
#X connect 7 0 5 1;
#X connect 7 0 48 0;
#X connect 8 0 9 0;
#X connect 9 0 11 0;
#X connect 11 0 6 0;
#X connect 12 0 11 0;
#X connect 15 0 18 0;
#X connect 16 0 17 0;
#X connect 17 0 50 0;
#X connect 18 0 49 0;
#X connect 19 0 4 0;
#X connect 20 0 27 0;
#X connect 20 0 29 0;
#X connect 21 0 24 0;
#X connect 22 0 23 0;
#X connect 23 0 51 0;
#X connect 24 0 52 0;
#X connect 25 0 28 0;
#X connect 25 0 26 0;
#X connect 26 0 21 0;
#X connect 27 0 16 0;
#X connect 28 0 22 0;
#X connect 29 0 15 0;
#X connect 30 0 33 0;
#X connect 31 0 32 0;
#X connect 32 0 53 0;
#X connect 33 0 54 0;
#X connect 34 0 35 0;
#X connect 34 0 36 0;
#X connect 35 0 31 0;
#X connect 36 0 30 0;
#X connect 37 0 3 0;
#X connect 38 0 7 0;
#X connect 39 0 41 0;
#X connect 41 0 38 0;
#X connect 42 0 41 0;
#X connect 43 0 39 0;
#X connect 44 0 45 0;
#X connect 45 0 2 0;
#X connect 46 0 48 1;
#X connect 47 0 46 0;
#X connect 48 0 5 1;
#X connect 49 0 0 1;
#X connect 50 0 0 0;
#X connect 51 0 0 0;
#X connect 52 0 0 1;
#X connect 53 0 0 0;
#X connect 54 0 0 1;
#X connect 55 0 0 0;
#X connect 55 0 0 1;
#X connect 55 0 14 0;
#X connect 55 0 13 0;
#X restore 372 42 pd phasor;
#X obj 353 20 bng 15 250 50 0 empty empty empty 17 7 0 10 -262144 -1
-1;
#X obj 372 19 loadbang;
#X obj 304 347 spigot;
#X msg 347 305 1;
#X msg 346 326 0;
#X msg 304 326 \$1 1;
#X obj 304 305 r hhs2;
#X obj 314 412 spigot;
#X msg 357 370 1;
#X msg 356 391 0;
#X msg 314 391 \$1 1;
#X obj 314 370 r hhs3;
#X obj 332 479 spigot;
#X msg 375 437 1;
#X msg 374 458 0;
#X msg 332 458 \$1 1;
#X obj 385 347 spigot;
#X msg 428 305 1;
#X msg 427 326 0;
#X msg 385 326 \$1 1;
#X obj 385 305 r hhs6;
#X obj 332 437 r hhs4;
#X obj 404 412 spigot;
#X msg 447 370 1;
#X msg 446 391 0;
#X msg 404 391 \$1 1;
#X obj 404 370 r hhs7;
#X obj 425 479 spigot;
#X msg 468 437 1;
#X msg 467 458 0;
#X msg 425 458 \$1 1;
#X obj 425 437 r hhs8;
#X obj 468 347 spigot;
#X msg 511 305 1;
#X msg 510 326 0;
#X msg 468 326 \$1 1;
#X obj 468 305 r hhs10;
#X obj 485 411 spigot;
#X msg 528 369 1;
#X msg 527 390 0;
#X msg 485 390 \$1 1;
#X obj 485 369 r hhs11;
#X obj 502 478 spigot;
#X msg 545 436 1;
#X msg 544 457 0;
#X msg 502 457 \$1 1;
#X obj 502 436 r hhs12;
#X obj 547 347 spigot;
#X msg 590 305 1;
#X msg 589 326 0;
#X msg 547 326 \$1 1;
#X obj 547 305 r hhs14;
#X obj 560 411 spigot;
#X msg 603 369 1;
#X msg 602 390 0;
#X msg 560 390 \$1 1;
#X obj 560 369 r hhs15;
#X obj 578 477 spigot;
#X msg 621 435 1;
#X msg 620 456 0;
#X msg 578 456 \$1 1;
#X obj 578 435 r hhs16;
#N canvas 270 138 581 526 arpeggio 0;
#X obj 134 48 inlet;
#X obj 134 80 select 0 1 2 3 4 5 6 7 8 9 10 11 12 13 14 15;
#X obj 135 366 *~;
#X obj 135 391 *~ 0.2;
#X msg 252 388 \$1 100;
#X obj 252 309 r sound;
#X msg 252 336 \$1 1;
#X obj 252 363 tgl 15 0 empty empty empty 17 7 0 10 -262144 -1 -1 1
1;
#X obj 290 336 loadbang;
#X obj 252 416 line~;
#X obj 132 417 dac~;
#X obj 212 49 bng 15 250 50 0 empty empty empty 17 7 0 10 -262144 -1
-1;
#X msg 199 309 \$1 100;
#X obj 199 284 tgl 15 0 empty empty empty 17 7 0 10 -262144 -1 -1 0
1;
#X obj 199 337 line~;
#X obj 244 49 delay 200;
#X obj 135 339 *~;
#X floatatom 30 162 5 0 0 0 - - -, f 5;
#X obj 134 281 line~;
#X obj 134 309 phasor~;
#X msg 135 181 110 180;
#X obj 29 182 osc~ 4;
#X floatatom 78 161 5 0 0 0 - - -, f 5;
#X obj 29 205 *~ 0.8;
#X obj 77 204 *~ 0.8;
#X obj 77 181 osc~ 0.3;
#X msg 242 181 55 180;
#X msg 291 181 260 240;
#X msg 345 181 400 1000;
#X msg 188 181 440 180;
#X connect 0 0 1 0;
#X connect 0 0 11 0;
#X connect 1 0 26 0;
#X connect 1 2 20 0;
#X connect 1 4 26 0;
#X connect 1 7 27 0;
#X connect 1 8 26 0;
#X connect 1 10 20 0;
#X connect 1 12 26 0;
#X connect 1 14 29 0;
#X connect 1 15 28 0;
#X connect 2 0 3 0;
#X connect 3 0 10 0;
#X connect 3 0 10 1;
#X connect 4 0 9 0;
#X connect 5 0 6 0;
#X connect 6 0 7 0;
#X connect 7 0 4 0;
#X connect 8 0 7 0;
#X connect 9 0 2 1;
#X connect 11 0 13 0;
#X connect 11 0 15 0;
#X connect 12 0 14 0;
#X connect 13 0 12 0;
#X connect 14 0 16 1;
#X connect 15 0 13 0;
#X connect 16 0 2 0;
#X connect 17 0 21 0;
#X connect 18 0 19 0;
#X connect 19 0 16 0;
#X connect 20 0 18 0;
#X connect 21 0 23 0;
#X connect 22 0 25 0;
#X connect 23 0 19 0;
#X connect 24 0 19 0;
#X connect 25 0 24 0;
#X connect 26 0 18 0;
#X connect 27 0 18 0;
#X connect 29 0 18 0;
#X restore 218 213 pd arpeggio;
#X obj 163 511 tgl 15 0 empty empty empty 17 7 0 10 -262144 -1 -1 0
1;
#X connect 0 0 1 0;
#X connect 0 0 2 0;
#X connect 1 0 0 1;
#X connect 2 0 50 0;
#X connect 2 0 88 0;
#X connect 3 0 93 0;
#X connect 3 0 159 0;
#X connect 4 0 12 0;
#X connect 5 0 12 0;
#X connect 6 0 12 0;
#X connect 7 0 12 0;
#X connect 8 0 7 1;
#X connect 9 0 5 1;
#X connect 10 0 4 1;
#X connect 11 0 6 1;
#X connect 12 0 40 0;
#X connect 12 0 41 0;
#X connect 15 0 14 0;
#X connect 16 0 15 0;
#X connect 17 0 22 0;
#X connect 18 0 19 0;
#X connect 19 0 20 0;
#X connect 20 0 17 0;
#X connect 21 0 20 0;
#X connect 23 0 82 0;
#X connect 24 0 15 0;
#X connect 25 0 26 0;
#X connect 26 0 27 0;
#X connect 27 0 28 0;
#X connect 28 0 32 0;
#X connect 29 0 25 0;
#X connect 29 0 30 0;
#X connect 30 0 31 0;
#X connect 31 0 28 1;
#X connect 32 0 33 0;
#X connect 32 0 33 1;
#X connect 34 0 47 0;
#X connect 35 0 91 0;
#X connect 35 0 92 0;
#X connect 35 0 43 0;
#X connect 35 0 90 0;
#X connect 37 0 95 1;
#X connect 38 0 95 1;
#X connect 39 0 95 1;
#X connect 40 0 14 0;
#X connect 41 0 23 0;
#X connect 42 0 95 1;
#X connect 43 0 9 0;
#X connect 45 0 44 1;
#X connect 46 0 45 0;
#X connect 47 0 95 0;
#X connect 49 0 51 0;
#X connect 50 0 49 0;
#X connect 50 0 52 0;
#X connect 51 0 55 0;
#X connect 51 0 77 0;
#X connect 51 1 99 0;
#X connect 51 2 104 0;
#X connect 51 3 109 0;
#X connect 51 4 60 0;
#X connect 51 5 113 0;
#X connect 51 6 119 0;
#X connect 51 7 124 0;
#X connect 51 8 65 0;
#X connect 51 8 77 0;
#X connect 51 9 129 0;
#X connect 51 10 134 0;
#X connect 51 11 139 0;
#X connect 51 12 70 0;
#X connect 51 13 144 0;
#X connect 51 14 149 0;
#X connect 51 15 154 0;
#X connect 53 0 55 1;
#X connect 54 0 55 1;
#X connect 55 0 44 0;
#X connect 56 0 57 0;
#X connect 57 0 55 1;
#X connect 58 0 59 0;
#X connect 59 0 45 0;
#X connect 60 0 44 0;
#X connect 61 0 60 1;
#X connect 62 0 60 1;
#X connect 63 0 64 0;
#X connect 64 0 60 1;
#X connect 65 0 44 0;
#X connect 66 0 65 1;
#X connect 67 0 65 1;
#X connect 68 0 65 1;
#X connect 69 0 68 0;
#X connect 70 0 44 0;
#X connect 71 0 70 1;
#X connect 72 0 70 1;
#X connect 73 0 70 1;
#X connect 74 0 73 0;
#X connect 75 0 44 0;
#X connect 77 0 29 0;
#X connect 79 0 78 0;
#X connect 80 0 81 0;
#X connect 81 0 78 0;
#X connect 82 0 13 0;
#X connect 82 0 13 1;
#X connect 84 0 83 1;
#X connect 85 0 84 0;
#X connect 86 0 87 0;
#X connect 87 0 84 0;
#X connect 88 0 3 0;
#X connect 88 0 48 0;
#X connect 89 0 95 1;
#X connect 90 0 8 0;
#X connect 91 0 11 0;
#X connect 92 0 10 0;
#X connect 93 0 7 0;
#X connect 93 1 5 0;
#X connect 93 2 4 0;
#X connect 93 3 6 0;
#X connect 94 0 95 1;
#X connect 95 0 0 0;
#X connect 97 0 96 0;
#X connect 98 0 96 0;
#X connect 99 0 44 0;
#X connect 100 0 99 1;
#X connect 101 0 99 1;
#X connect 102 0 99 1;
#X connect 103 0 102 0;
#X connect 104 0 44 0;
#X connect 105 0 104 1;
#X connect 106 0 104 1;
#X connect 107 0 104 1;
#X connect 108 0 107 0;
#X connect 109 0 44 0;
#X connect 110 0 109 1;
#X connect 111 0 109 1;
#X connect 112 0 109 1;
#X connect 113 0 44 0;
#X connect 114 0 113 1;
#X connect 115 0 113 1;
#X connect 116 0 113 1;
#X connect 117 0 116 0;
#X connect 118 0 112 0;
#X connect 119 0 44 0;
#X connect 120 0 119 1;
#X connect 121 0 119 1;
#X connect 122 0 119 1;
#X connect 123 0 122 0;
#X connect 124 0 44 0;
#X connect 125 0 124 1;
#X connect 126 0 124 1;
#X connect 127 0 124 1;
#X connect 128 0 127 0;
#X connect 129 0 44 0;
#X connect 130 0 129 1;
#X connect 131 0 129 1;
#X connect 132 0 129 1;
#X connect 133 0 132 0;
#X connect 134 0 44 0;
#X connect 135 0 134 1;
#X connect 136 0 134 1;
#X connect 137 0 134 1;
#X connect 138 0 137 0;
#X connect 139 0 44 0;
#X connect 140 0 139 1;
#X connect 141 0 139 1;
#X connect 142 0 139 1;
#X connect 143 0 142 0;
#X connect 144 0 44 0;
#X connect 145 0 144 1;
#X connect 146 0 144 1;
#X connect 147 0 144 1;
#X connect 148 0 147 0;
#X connect 149 0 44 0;
#X connect 150 0 149 1;
#X connect 151 0 149 1;
#X connect 152 0 149 1;
#X connect 153 0 152 0;
#X connect 154 0 44 0;
#X connect 155 0 154 1;
#X connect 156 0 154 1;
#X connect 157 0 154 1;
#X connect 158 0 157 0;
#X connect 160 0 23 1;
